HIERARCHY
ROOT Hips
{
	OFFSET 56.877701 -32.693596 43.373703
	CHANNELS 6 Xposition Yposition Zposition Zrotation Xrotation Yrotation
	JOINT Chest
	{
		OFFSET -0.779999 1.005800 5.403099
		CHANNELS 6 Xposition Yposition Zposition Zrotation Xrotation Yrotation
		JOINT Chest2
		{
			OFFSET 0.000000 0.000000 4.236801
			CHANNELS 6 Xposition Yposition Zposition Zrotation Xrotation Yrotation
			JOINT Neck
			{
				OFFSET 0.000000 0.000000 9.874401
				CHANNELS 6 Xposition Yposition Zposition Zrotation Xrotation Yrotation
				JOINT Head
				{
					OFFSET 0.000000 0.000002 2.173893
					CHANNELS 6 Xposition Yposition Zposition Zrotation Xrotation Yrotation
					End Site
					{
						OFFSET 0.000000 0.000000 6.508102
					}
				}
			}
			JOINT LeftCollar
			{
				OFFSET 2.681599 -0.377600 5.432499
				CHANNELS 6 Xposition Yposition Zposition Zrotation Xrotation Yrotation
				JOINT LeftShoulder
				{
					OFFSET 5.161499 0.000000 0.000000
					CHANNELS 6 Xposition Yposition Zposition Zrotation Xrotation Yrotation
					JOINT LeftElbow
					{
						OFFSET 0.000000 0.000000 -10.869099
						CHANNELS 6 Xposition Yposition Zposition Zrotation Xrotation Yrotation
						JOINT LeftWrist
						{
							OFFSET 0.000000 0.000000 -13.344799
							CHANNELS 6 Xposition Yposition Zposition Zrotation Xrotation Yrotation
							End Site
							{
								OFFSET 0.000000 0.000000 -2.173901
							}
						}
					}
				}
			}
			JOINT RightCollar
			{
				OFFSET -2.381901 -1.419600 6.136600
				CHANNELS 6 Xposition Yposition Zposition Zrotation Xrotation Yrotation
				JOINT RightShoulder
				{
					OFFSET -4.550499 0.000000 0.000000
					CHANNELS 6 Xposition Yposition Zposition Zrotation Xrotation Yrotation
					JOINT RightElbow
					{
						OFFSET 0.000000 0.000000 -11.106499
						CHANNELS 6 Xposition Yposition Zposition Zrotation Xrotation Yrotation
						JOINT RightWrist
						{
							OFFSET 0.000000 0.000000 -12.874298
							CHANNELS 6 Xposition Yposition Zposition Zrotation Xrotation Yrotation
							End Site
							{
								OFFSET 0.000000 0.000000 -2.173901
							}
						}
					}
				}
			}
		}
	}
	JOINT LeftHip
	{
		OFFSET 2.431900 0.469601 -2.489399
		CHANNELS 6 Xposition Yposition Zposition Zrotation Xrotation Yrotation
		JOINT LeftKnee
		{
			OFFSET 0.000000 -0.000004 -18.200201
			CHANNELS 6 Xposition Yposition Zposition Zrotation Xrotation Yrotation
			JOINT LeftAnkle
			{
				OFFSET 0.000000 0.000000 -16.279900
				CHANNELS 6 Xposition Yposition Zposition Zrotation Xrotation Yrotation
				End Site
				{
					OFFSET 0.000000 -8.394100 0.000000
				}
			}
		}
	}
	JOINT RightHip
	{
		OFFSET -1.987999 -0.073502 -2.713001
		CHANNELS 6 Xposition Yposition Zposition Zrotation Xrotation Yrotation
		JOINT RightKnee
		{
			OFFSET 0.000000 -0.000004 -19.547802
			CHANNELS 6 Xposition Yposition Zposition Zrotation Xrotation Yrotation
			JOINT RightAnkle
			{
				OFFSET 0.000000 0.000000 -14.881199
				CHANNELS 6 Xposition Yposition Zposition Zrotation Xrotation Yrotation
				End Site
				{
					OFFSET 0.000000 -7.922699 0.000000
				}
			}
		}
	}
}
MOTION
Frames: 7
Frame Time: 0.041667
-41.026108 -53.616501 43.065804 4575.103752 2.367048 1.012173 -0.779996 1.005801 5.403095 -30.327450 1.801179 7.771193 0.000008 0.000000 4.236796 4.301809 -4.939935 -0.684504 0.000005 0.000006 9.874393 37.612223 -4.602502 -11.702674 -0.000004 -0.000000 2.173893 2.961241 3.194301 6.509875 2.681610 -0.377609 5.432498 -24.564881 10.603144 6.724645 5.161512 -0.000009 0.000002 179.209055 -114.872457 117.123934 0.000001 0.000004 -10.869093 -100.399293 -67.200817 -104.823535 0.000003 0.000001 -13.344810 -44.947446 -4.343977 18.284196 -2.381890 -1.419602 6.136588 -11.868973 -11.570375 19.217560 -4.550508 -0.000004 0.000015 -1216.137148 -502.452266 -388.537934 0.000002 -0.000008 -11.106499 708.543826 -32.028816 711.678445 0.000005 0.000004 -12.874296 -306.762073 22.330388 -58.603358 2.431895 0.469600 -2.489392 -345.605960 -22.646971 0.521823 0.000004 -0.000003 -18.200195 339.761367 46.234377 21.274494 -0.000000 0.000000 -16.279900 12.044640 20.963751 -9.216156 -1.988003 -0.073503 -2.713006 -103.721388 -43.331031 -115.272488 -0.000008 -0.000006 -19.547792 -1440.611916 141.069744 -330.603340 0.000001 0.000008 -14.881199 2024.670462 106.934357 -597.078526
-41.004402 -53.625496 43.033001 4575.107249 2.555105 1.009714 -0.779993 1.005798 5.403099 -30.139446 1.749543 7.682966 -0.000002 -0.000008 4.236799 4.216788 -5.041001 -0.694353 0.000002 0.000011 9.874395 37.525507 -4.576006 -11.627130 0.000001 0.000007 2.173892 3.022034 3.144991 6.494963 2.681598 -0.377593 5.432502 -24.937214 10.637524 7.048899 5.161498 -0.000006 0.000005 178.130022 -116.264245 116.045078 0.000002 -0.000002 -10.869096 -99.932641 -63.736354 -106.229393 0.000010 0.000002 -13.344797 -41.796769 -4.173043 18.663700 -2.381901 -1.419598 6.136598 -11.994489 -11.572660 19.150274 -4.550501 -0.000006 0.000010 -1215.357195 -502.247032 -387.923381 0.000007 -0.000006 -11.106491 708.617646 -32.422150 711.669102 -0.000003 0.000001 -12.874308 -306.814994 22.061473 -57.446071 2.431905 0.469601 -2.489395 -345.455068 -22.977062 0.655653 -0.000001 -0.000005 -18.200191 339.222274 46.360783 21.562342 -0.000000 0.000000 -16.279896 12.229977 20.892756 -9.097628 -1.988002 -0.073499 -2.713002 -103.736524 -43.258231 -115.416455 -0.000006 -0.000007 -19.547794 -1440.810374 141.502245 -330.421903 0.000001 0.000008 -14.881186 2024.992191 106.942068 -597.665595
-40.986900 -53.632698 43.007313 4575.097632 2.694325 1.000241 -0.779993 1.005799 5.403101 -30.069136 1.691633 7.623715 -0.000004 -0.000004 4.236804 4.195992 -4.915863 -0.672936 -0.000001 0.000003 9.874404 37.527658 -4.732392 -11.488563 0.000003 0.000003 2.173892 3.040331 3.090867 6.566197 2.681595 -0.377598 5.432503 -25.152836 10.486022 7.124602 5.161514 -0.000014 0.000007 177.752804 -117.159546 115.701642 0.000009 0.000003 -10.869095 -99.711801 -60.326287 -107.252152 0.000007 0.000002 -13.344795 -38.626246 -3.864828 18.947252 -2.381904 -1.419601 6.136596 -12.008499 -11.617948 19.059334 -4.550499 -0.000003 -0.000006 -1214.910118 -502.126220 -387.493325 0.000006 -0.000014 -11.106499 708.265919 -32.739084 711.639377 0.000000 -0.000002 -12.874293 -307.009681 21.799584 -57.369600 2.431903 0.469596 -2.489398 -345.424933 -23.213709 0.736508 0.000000 -0.000006 -18.200199 338.649740 46.384802 21.917635 0.000006 0.000004 -16.279898 12.520699 20.812568 -8.926003 -1.987995 -0.073504 -2.713001 -103.661733 -43.167130 -115.438339 0.000003 -0.000005 -19.547783 -1440.677813 141.739922 -330.446847 -0.000001 0.000013 -14.881197 2025.708432 106.622183 -598.365771
-40.969398 -53.641098 42.983799 4574.972612 2.749141 0.883067 -0.780002 1.005799 5.403097 -29.894853 1.668264 7.716498 -0.000002 -0.000006 4.236803 4.179263 -4.943418 -0.674006 -0.000003 0.000004 9.874397 37.639605 -4.769720 -11.526904 0.000002 0.000004 2.173893 2.954729 3.107334 6.584610 2.681594 -0.377601 5.432499 -25.230895 10.437766 7.112225 5.161508 -0.000002 0.000008 178.581170 -117.040359 116.588720 0.000004 0.000007 -10.869094 -100.567255 -57.167307 -108.244032 0.000001 0.000007 -13.344803 -35.719226 -3.601157 19.222987 -2.381908 -1.419598 6.136596 -11.974984 -11.723578 19.204755 -4.550501 -0.000000 0.000002 -1214.611338 -501.912080 -387.358934 0.000005 0.000000 -11.106501 707.676720 -33.147970 711.316992 0.000001 0.000002 -12.874289 -306.796552 21.695462 -57.317896 2.431895 0.469596 -2.489396 -345.232731 -23.370083 0.918008 0.000001 -0.000003 -18.200199 338.598896 46.568923 22.007860 -0.000002 0.000001 -16.279900 12.559624 20.769531 -9.024036 -1.988006 -0.073503 -2.713005 -103.409870 -43.191873 -115.406073 -0.000012 0.000003 -19.547781 -1440.723822 142.216013 -330.288632 0.000009 0.000004 -14.881193 2025.532705 106.467875 -598.688702
-40.956604 -53.649494 42.974003 4574.879066 2.714155 0.832794 -0.779998 1.005798 5.403091 -29.796222 1.749191 7.789526 -0.000004 -0.000007 4.236795 4.193958 -4.960087 -0.673406 -0.000001 0.000004 9.874399 37.741286 -4.771805 -11.558888 -0.000000 0.000002 2.173900 2.882369 3.145019 6.552136 2.681602 -0.377596 5.432498 -25.448602 10.386629 7.237427 5.161510 -0.000005 0.000006 179.992888 -116.179960 117.735509 0.000006 0.000007 -10.869099 -102.376599 -55.010907 -109.380856 -0.000001 0.000005 -13.344796 -33.760628 -3.357695 19.345324 -2.381899 -1.419598 6.136588 -11.956692 -11.843809 19.357513 -4.550514 -0.000001 0.000010 -1214.225787 -501.660237 -387.193206 0.000002 -0.000002 -11.106499 707.123638 -33.557795 710.911934 0.000006 0.000006 -12.874301 -306.628721 21.675769 -57.465592 2.431901 0.469604 -2.489395 -344.687573 -23.503538 1.133264 -0.000003 -0.000001 -18.200193 338.575482 46.903104 21.927619 -0.000001 0.000005 -16.279902 12.450794 20.910375 -9.494898 -1.987993 -0.073496 -2.713002 -103.129190 -43.354865 -115.261232 0.000003 -0.000005 -19.547791 -1441.094072 142.686805 -329.902672 -0.000003 0.000008 -14.881192 2025.840665 106.499267 -599.626788
-40.948898 -53.654198 42.965405 4574.891742 2.627325 0.759454 -0.780003 1.005800 5.403100 -29.827935 1.856694 7.906116 -0.000000 0.000001 4.236796 4.227329 -4.977046 -0.673470 -0.000006 0.000002 9.874404 37.732035 -4.674050 -11.618232 0.000002 0.000004 2.173903 2.914763 3.186055 6.448706 2.681581 -0.377602 5.432496 -25.568934 10.326965 7.222969 5.161504 -0.000004 0.000003 181.477033 -115.536502 119.143101 -0.000001 0.000001 -10.869092 -103.741401 -52.551475 -110.352744 0.000001 0.000004 -13.344803 -31.430816 -3.214551 19.755859 -2.381907 -1.419603 6.136589 -11.961567 -11.974292 19.460695 -4.550512 0.000003 0.000008 -1214.035744 -501.566363 -387.179901 0.000000 -0.000010 -11.106491 706.904963 -33.978613 710.789483 -0.000002 0.000007 -12.874292 -306.866138 21.678899 -57.550190 2.431888 0.469605 -2.489397 -344.606512 -23.480835 1.257817 -0.000003 -0.000005 -18.200199 338.477237 46.991070 21.981975 -0.000002 0.000005 -16.279896 12.538198 20.893202 -9.598902 -1.988009 -0.073495 -2.713010 -102.923397 -43.478351 -115.089808 -0.000001 -0.000008 -19.547794 -1441.138551 143.040158 -329.734513 0.000001 0.000010 -14.881199 2026.354295 106.459577 -600.693172
-40.943008 -53.658096 42.958099 4574.939390 2.515609 0.711918 -0.779987 1.005798 5.403098 -29.950420 1.991890 8.012018 0.000003 0.000000 4.236800 4.285568 -5.012102 -0.675989 0.000002 -0.000003 9.874391 37.930277 -4.600439 -11.778947 0.000005 0.000008 2.173893 2.821725 3.275941 6.376227 2.681597 -0.377603 5.432492 -25.638590 10.303164 7.298551 5.161500 0.000003 0.000001 181.810347 -115.684690 119.527231 0.000006 0.000006 -10.869107 -104.139129 -50.022864 -111.293992 0.000008 0.000005 -13.344809 -29.148987 -2.982905 19.988103 -2.381904 -1.419608 6.136587 -12.036702 -11.935248 19.358636 -4.550499 -0.000002 0.000008 -1213.581236 -501.524508 -386.828228 0.000004 -0.000008 -11.106504 706.863763 -34.317316 710.677030 -0.000001 0.000000 -12.874297 -307.100987 21.681874 -57.656441 2.431909 0.469604 -2.489398 -344.523894 -23.459345 1.327168 0.000001 -0.000009 -18.200199 338.130892 47.104403 22.205452 -0.000001 0.000001 -16.279900 12.712845 20.807369 -9.687805 -1.987989 -0.073499 -2.713009 -102.798739 -43.581146 -114.932467 -0.000001 0.000002 -19.547796 -1441.148386 143.401884 -329.620094 0.000000 0.000001 -14.881195 2026.684330 106.442829 -601.326357
